<svg width="25" height="25" viewBox="0 0 25 25" fill="none" xmlns="http://www.w3.org/2000/svg">
<g clip-path="url(#clip0_262_61)">
<path d="M17.3472 25H7.65616C3.43703 25 0.0032982 21.5663 0.0032982 17.3471V7.65611C5.27086e-05 3.43373 3.43378 0 7.65292 0H17.3439C21.5631 0 24.9968 3.43373 24.9968 7.65286V17.3439C24.9968 21.563 21.5631 24.9968 17.3439 24.9968L17.3472 25ZM7.65292 1.87265C4.46585 1.87265 1.86945 4.46579 1.86945 7.65611V17.3471C1.86945 20.5342 4.4626 23.1306 7.65292 23.1306H17.3439C20.531 23.1306 23.1274 20.5375 23.1274 17.3471V7.65611C23.1274 4.46904 20.5343 1.87265 17.3439 1.87265H7.65292Z" fill="#692C23"/>
<path d="M12.4984 18.8241C9.0127 18.8241 6.17615 15.9876 6.17615 12.5019C6.17615 9.01624 9.0127 6.17969 12.4984 6.17969C15.984 6.17969 18.8206 9.01624 18.8206 12.5019C18.8206 15.9876 15.984 18.8241 12.4984 18.8241ZM12.4984 8.09453C10.0675 8.09453 8.09099 10.071 8.09099 12.5019C8.09099 14.9328 10.0675 16.9093 12.4984 16.9093C14.9292 16.9093 16.9057 14.9328 16.9057 12.5019C16.9057 10.071 14.9292 8.09453 12.4984 8.09453Z" fill="#692C23"/>
<path d="M21.1574 5.48824C21.1574 6.39697 20.4207 7.1337 19.5119 7.1337C18.6032 7.1337 17.8665 6.39697 17.8665 5.48824C17.8665 4.5795 18.6032 3.84277 19.5119 3.84277C20.4207 3.84277 21.1574 4.5795 21.1574 5.48824Z" fill="#692C23"/>
</g>
<defs>
<clipPath id="clip0_262_61">
<rect width="25" height="25" fill="#692C23"/>
</clipPath>
</defs>
</svg>
