<?xml version="1.0" encoding="UTF-8"?>
<svg id="Layer_1" data-name="Layer 1" xmlns="http://www.w3.org/2000/svg" viewBox="0 0 637.32 120">
  <defs>
    <style>
      .cls-1 {
        fill: #f2eee6;
      }
    </style>
  </defs>
  <path class="cls-1" d="M293.53,36.56h0c-5.22-6.51-13.11-8.85-24.83-7.35-9.45,1.2-22.7,4.49-31.58,10.1l-.16.1v17.36s.54-.45.54-.45c8.96-7.24,19.72-14.81,26.21-19.09,4.81-3.17,8.84-4.78,11.98-4.78,3.77,0,6.28,1.7,7.68,5.2,1.42,3.56,2.14,8.76,2.14,15.45v5.61l-16.97,8.09-5.17,2.5c-6.53,3.21-11.96,6.25-16.12,9.02-4.18,2.79-7.63,5.98-10.25,9.49-2.64,3.54-3.98,7.51-3.98,11.78,0,5.74,2,10.59,5.93,14.41,3.93,3.82,9.45,5.76,16.4,5.76s13.67-2.07,19.03-6.15c3.98-3.02,7.68-6.79,11.01-11.2l-.41,15.69h14.91l-.19-54.32c.09-13.26-2.19-22.22-6.19-27.21ZM285.51,97.14c-2.54,3.19-5.59,5.86-9.08,7.91-3.98,2.35-8.21,3.53-12.57,3.53-5,0-9.07-1.45-12.1-4.32-3.02-2.86-4.56-6.39-4.56-10.5,0-4.76,1.95-8.94,5.8-12.41,3.9-3.52,8.83-6.69,14.66-9.44l17.84-8.51v33.73Z"/>
  <path class="cls-1" d="M473.61,36.56h0c-5.22-6.51-13.11-8.85-24.83-7.35-9.45,1.2-22.7,4.49-31.58,10.1l-.16.1v17.36s.54-.45.54-.45c8.96-7.24,19.72-14.81,26.21-19.09,4.81-3.17,8.84-4.78,11.98-4.78,3.77,0,6.28,1.7,7.68,5.2,1.42,3.56,2.14,8.76,2.14,15.45v5.61l-16.97,8.09-5.17,2.5c-6.53,3.21-11.96,6.25-16.12,9.02-4.18,2.79-7.63,5.98-10.25,9.49-2.64,3.54-3.98,7.51-3.98,11.78,0,5.74,2,10.59,5.93,14.41,3.93,3.82,9.45,5.76,16.4,5.76s13.67-2.07,19.03-6.15c3.98-3.02,7.68-6.79,11.01-11.2l-.41,15.69h14.91l-.19-54.32c.09-13.26-2.19-22.22-6.19-27.21ZM465.59,97.14c-2.54,3.19-5.59,5.86-9.08,7.91-3.98,2.35-8.21,3.53-12.57,3.53-5,0-9.07-1.45-12.1-4.32-3.02-2.86-4.56-6.39-4.56-10.5,0-4.76,1.95-8.94,5.8-12.41,3.9-3.52,8.83-6.69,14.66-9.44l17.84-8.51v33.73Z"/>
  <path class="cls-1" d="M630.93,36.56h0c-5.22-6.51-13.11-8.85-24.83-7.35-9.45,1.2-22.7,4.49-31.58,10.1l-.16.1v17.36s.54-.45.54-.45c8.96-7.24,19.72-14.81,26.21-19.09,4.81-3.17,8.84-4.78,11.98-4.78,3.77,0,6.28,1.7,7.68,5.2,1.42,3.56,2.14,8.76,2.14,15.45v5.61l-16.97,8.09-5.17,2.5c-6.53,3.21-11.96,6.25-16.12,9.02-4.18,2.79-7.63,5.98-10.25,9.49-2.64,3.54-3.98,7.51-3.98,11.78,0,5.74,2,10.59,5.93,14.41,3.93,3.82,9.45,5.76,16.4,5.76s13.67-2.07,19.03-6.15c3.98-3.02,7.68-6.79,11.01-11.2l-.41,15.69h14.91l-.19-54.32c.09-13.26-2.19-22.22-6.19-27.21ZM622.91,97.14c-2.54,3.19-5.59,5.86-9.08,7.91-3.98,2.35-8.21,3.53-12.57,3.53-5,0-9.07-1.45-12.1-4.32-3.02-2.86-4.56-6.39-4.56-10.5,0-4.76,1.95-8.94,5.8-12.41,3.9-3.52,8.83-6.69,14.66-9.44l17.84-8.51v33.73Z"/>
  <path class="cls-1" d="M48.28,1.18l3.76,8.26L0,118h16.29s5.87-15.95,13.67-37.19h54.22l17.19,37,.09.2h16.35L64.4,1.18h-16.12ZM82.07,75.41H31.77c8.72-23.7,16.35-44.11,22.68-60.68l27.62,60.68Z"/>
  <polygon class="cls-1" points="147.81 0 133.61 3.29 133.7 118.01 148.06 118.01 147.81 .36 147.81 0"/>
  <path class="cls-1" d="M187.24,12.09l-21.17,23.04-.09.1v3.53h7.3l-.17,56.5c-.11,8.55,1.25,14.87,4.05,18.79,2.82,3.95,7.15,5.95,12.89,5.95,4.44,0,9.39-.93,14.71-2.76,5.3-1.82,9.96-3.93,13.84-6.25l.17-.1v-18.25l-17.92,17.98c-3.51,3.46-6.47,5.21-8.8,5.21-1.63,0-2.8-.99-3.58-3.02-.81-2.11-1.22-6.06-1.22-11.74v-62.31h31.73l1.59-5.4h-33.33V12.09Z"/>
  <path class="cls-1" d="M372,75.45c7.43-3.27,13.45-8.05,17.89-14.22,4.45-6.17,6.7-13.58,6.7-22.02,0-7.11-1.8-13.62-5.36-19.34-3.56-5.73-9.05-10.32-16.33-13.65-7.26-3.32-16.43-5.01-27.27-5.01h-25.56v116.83h15.28v-37.39h9.95c3.08,0,5.84-.15,8.44-.47l28.96,37.72.1.13h18.62l-32.8-41.99c.46-.19.92-.39,1.38-.6ZM380.15,43.53c0,9.71-2.87,17.64-8.53,23.58-5.66,5.93-14.79,8.94-27.13,8.94-2.51,0-4.9-.11-7.13-.34V5.19c1.93-.15,3.94-.26,5.96-.32,6.55.11,12.7,1.69,18.26,4.69,5.56,3,10.06,7.45,13.39,13.23,3.33,5.79,5.07,12.77,5.18,20.74Z"/>
  <path class="cls-1" d="M529.63,64.28c-7.56-4.06-13.5-7.83-17.66-11.21-4.1-3.32-6.11-6.33-6.04-9.84.04-1.95.51-3.81,1.93-5.19,1.36-1.33,3.2-2.14,5.05-2.5,5.56-1.06,11.82.39,17.12,2.03,3.93,1.21,7.7,2.79,11.31,4.75,5.69,3.1,10.85,6.8,15.55,11.32l.13-18.03v-.23s-.21-.09-.21-.09c-10.12-4.57-20.48-6.74-30.77-6.49-11.98.31-18.03,3.81-20.57,5.87-1.25,1.01-4.18,3.39-5.94,7.59-.42,1-1.41,3.72-1.43,7.33-.02,3.51.89,6.24,1.44,7.55.5,1.2,1.12,2.33,1.94,3.55,2.16,3.18,5.22,5.98,8.8,8.43,6.21,4.25,11.86,7.42,14.47,8.93,3,1.73,6.22,3.55,9.12,5.35,2.46,1.52,4.66,2.91,7.16,4.56,2.14,1.41,5.64,3.38,8.48,6.96,1.85,2.34,2.39,4.53,2.4,6.67,0,.64,0,2.46-.98,4.32-.19.37-1.11,1.8-2.65,2.99-2.21,1.72-5.45,2.63-9.11,2.65h-.11c-12.15,0-21.37-5.36-30.59-12.6-3.56-2.79-10.84-9.66-10.84-9.66l.02,19.35.15.1c.08.06,8.15,5.78,13.81,7.87,5.69,2.11,11.75,3.17,18.01,3.17,8.68,0,15.58-2.21,20.5-6.56,4.94-4.37,7.44-10.24,7.44-17.47,0-6.19-2.18-11.69-6.48-16.33-4.26-4.6-11.49-9.7-21.47-15.15Z"/>
</svg>