<?xml version="1.0" encoding="UTF-8"?>
<svg id="Layer_1" data-name="Layer 1" xmlns="http://www.w3.org/2000/svg" viewBox="0 0 180.76 120">
  <defs>
    <style>
      .cls-1 {
        fill: #692c23;
      }
    </style>
  </defs>
  <path class="cls-1" d="M49.59,0l3.86,8.49L.24,119.29l-.24.5h16.74l.08-.23c.06-.16,6-16.61,14.01-38.42h55.69l17.6,38.66.09.2h16.79L66.15,0h-16.55ZM84.3,76.25h-51.67c8.96-24.35,16.8-45.3,23.3-62.32l28.37,62.32Z"/>
  <path class="cls-1" d="M147.07,76.87c.47-.2.94-.4,1.42-.61,7.63-3.36,13.82-8.27,18.38-14.6,4.57-6.34,6.88-13.95,6.88-22.62,0-7.3-1.85-13.99-5.51-19.87-3.66-5.88-9.3-10.6-16.77-14.02-7.45-3.41-16.88-5.14-28.01-5.14h-26.25v104.6l7.01,15.4h8.69v-38.4h10.22c3.16,0,6-.16,8.67-.48l29.74,38.75.11.14h19.12l-33.69-43.13ZM120.22,76.86c-2.58,0-5.04-.12-7.32-.35V4.1c1.99-.15,4.05-.27,6.12-.33,6.73.11,13.04,1.73,18.76,4.82,5.71,3.08,10.33,7.65,13.75,13.59,3.42,5.94,5.21,13.11,5.32,21.3,0,9.97-2.95,18.12-8.77,24.22-5.81,6.09-15.19,9.18-27.87,9.18Z"/>
</svg>